<svg xmlns="http://www.w3.org/2000/svg" width="400" height="315.293" viewBox="0 0 400 NaN"  fill-rule="evenodd" xmlns:v="https://vecta.io/nano"><path d="M86.833 176.333v48.5H183V213H98.667v-85.167H86.833v48.5" fill="#6cc4b4"/><path d="M216.167 5.833v5.834h85.166v85.166h11.834V0h-97v5.833" fill="#8cc443"/><path d="M157 112.333v65h86.003l-.086-16.916-69.417-.084v-39h49v-17h-49v-40H243v-17h-86v65M67.583 254.615c-4.606.602-7.392 6.217-5.155 10.39 1.587 2.96 5.676 4.639 8.572 3.52 8.37-3.236 5.464-15.07-3.417-13.91m182 .046c-6.057 1.262-7.927 8.611-3.209 12.613 2.796 2.371 7.893 1.847 10.103-1.04 2.109-2.754 2.188-6.116.208-8.849-1.449-2-4.662-3.233-7.102-2.724m-205.006 1.881c-.044.114-.06 13.183-.036 29.041l.042 28.834 10.917.088v-58.172h-5.422c-4.184 0-5.44.048-5.501.209m85.756 28.875V314.5H141l.002-12.292c.002-9.892.047-12.459.231-13.152 2.048-7.693 12.321-8.267 15.076-.841.354.955.358 1.085.358 13.625v12.66H167.5l-.003-12.625c-.003-14.617-.037-15.038-1.454-18.364-3.863-9.064-14.097-13.793-22.543-10.417-.413.165-.788.342-.833.395s-.271.2-.5.328-.586.344-.792.478l-.375.243v-18.205h-10.667v29.084m133.834 0V314.5H275v-58.167h-10.833v29.084M282 274.781c0 18.421.061 20.809.597 23.513 1.429 7.204 6.849 13.474 13.653 15.795 8.558 2.919 19.484-.225 23.915-6.882.229-.343.454-.661.5-.707 2.117-2.08 3.898-8.096 3.898-13.167 0-9.583-4.675-16.79-13.375-20.62-3.791-1.67-9.927-1.845-13.602-.389-1.585.628-3.162 1.614-4.003 2.503l-.5.528-.166-18.938-10.917-.088v18.452m-71.917-15.903c-3.206.274-7.132 1.883-9.068 3.718-.329.312-.654.568-.722.569-.611.007-4.041 5.188-4.526 6.835-1.5 5.096-1.148 9.424 1.096 13.474.816 1.474.976 1.71 1.876 2.776 2.581 3.058 5.778 4.972 9.609 5.753 1.458.297 2.298.33 8.334.33 7.685 0 8.096.053 9.408 1.208 2.525 2.223 2.782 5.397.629 7.791-1.714 1.907-1.041 1.829-15.927 1.832l-12.792.003V314.5l13.125-.003c14.574-.004 14.889-.024 17.676-1.144 9.093-3.654 13.104-13.776 9.032-22.793-1.706-3.777-5.652-7.287-9.714-8.64-2.328-.775-2.607-.8-10.369-.903l-7.5-.1-.934-.459c-3.575-1.755-4.199-6.218-1.247-8.916 1.58-1.444.785-1.375 15.867-1.375h13.231V258.75h-12.792l-14.292.128M0 286.667V314.5h38.167v-11.333H11.333v-10.834H29.5V281H11.333v-10.833h26.834v-11.334H0v27.834m97.667-15.15c-2.621.516-3.801.893-5.834 1.867-6.593 3.157-10.813 9.241-11.758 16.949-1.206 9.842 3.193 18.949 10.925 22.621 2.352 1.118 3.202 1.391 6.304 2.03 1.143.235 6.033.237 6.927.003l1.352-.353c1.651-.428 5.409-2.054 5.415-2.342.001-.069.083-.125.183-.125.238 0 2.388-1.496 3.236-2.251 1.348-1.202 1.016-1.465 4.599 3.646l.599.855 2.718.096V273l-2.75.015-1.914 2.326c-2.119 2.573-2.026 2.508-2.644 1.867-4.043-4.195-11.891-6.768-17.358-5.691m248.166 0c-4.02.791-6.655 1.925-9.52 4.094-1.137.861-2.728 2.409-3.4 3.309-.272.365-.536.701-.587.747-.867.783-2.769 4.825-3.411 7.25-3.494 13.195 3.926 25.534 16.885 28.076 1.153.227 6.163.224 7.168-.003 1.869-.423 2.337-.547 3.282-.865 4.057-1.37 10.417-6.172 10.417-7.865 0-.169-5.718-6.031-7.374-7.559l-.414-.383-.278.584c-1.755 3.7-8.423 6.883-11.151 5.324-.231-.132 1.084-1.865 3.525-4.645.243-.277.726-.856 1.074-1.288a25.75 25.75 0 0 1 .836-.997 18.87 18.87 0 0 0 .782-.963c.318-.412.67-.845.781-.962s.488-.567.836-1a26.74 26.74 0 0 1 .843-1.01c.116-.122.863-1.023 1.659-2l2.382-2.861 1.341-1.6a92.52 92.52 0 0 1 1.3-1.584l1.166-1.401 1.567-1.88c1.487-1.78 1.427-1.594.784-2.443-1.258-1.663-3.171-3.427-5.325-4.911-3.771-2.597-10.704-4.043-15.168-3.164m-282.5 22.15V314.5h10.834v-41.667H63.333v20.834m182.077-20.625c-.043.114-.06 9.47-.036 20.791l.043 20.584 10.916.088v-41.672h-5.422c-4.184 0-5.44.048-5.501.209M372 293.667V314.5h10.667v-11.542c0-14.197.021-14.356 2.259-16.772 2.049-2.214 3.252-2.519 9.915-2.519H400V273h-5.792c-4.604 0-6.048.054-7.041.261-3.099.645-5.992 1.959-8.11 3.684-.505.412-.937.724-.959.694l-.438-.639c-.22-.321-.495-.682-.613-.804s-.214-.284-.214-.363-.096-.242-.214-.363-.549-.708-.958-1.303c-.949-1.382-.853-1.328-2.369-1.331l-1.292-.003v20.834m-267.927-10.991c8.784 3.299 10.074 14.793 2.26 20.137-3.03 2.073-8.176 2.145-10.75.152l-1.028-.791c-5.18-3.975-4.867-14.49.54-18.167 2.61-1.775 6.329-2.326 8.978-1.331m202.38-.013c5.021 1.655 8.177 7.255 7.141 12.67-2.024 10.576-15.128 12.452-19.58 2.804-3.894-8.44 3.998-18.256 12.439-15.474m45.418-.241c.237.091-3.408 5.213-5.984 8.411-.111.138-.56.738-.998 1.334s-.837 1.12-.888 1.166-.877 1.134-1.836 2.417c-1.981 2.652-2.112 2.805-2.229 2.615-.937-1.517-1.043-6.832-.183-9.282 1.268-3.618 4.205-6.153 7.83-6.758.888-.149 3.821-.082 4.288.097" fill="#fcb414"/><path d="M301.333 170.417V213h-85.166v11.833h97v-97h-11.834v42.584" fill="#44c4e4"/><path d="M86.833 48.5V97h11.834V11.833h85.166V0h-97v48.5M9.445 258.792h19.167c5.301-.025 1.013-.045-9.529-.045l-9.638.045m208.513 0h12.75c3.507-.026.638-.046-6.375-.046l-6.375.046m144.202 42.75c.69.736.84.868.84.743 0-.027-.356-.383-.792-.792l-.791-.743.743.792" fill="#e45c24"/></svg>